<svg width="25" height="23" viewBox="0 0 25 23" fill="none" xmlns="http://www.w3.org/2000/svg">
<path d="M2.34375 11.5H22.6562C23.2779 11.5 23.874 11.7469 24.3135 12.1865C24.7531 12.626 25 13.2221 25 13.8438C25 14.4654 24.7531 15.0615 24.3135 15.501C23.874 15.9406 23.2779 16.1875 22.6562 16.1875H2.34375C1.72215 16.1875 1.12601 15.9406 0.686468 15.501C0.24693 15.0615 0 14.4654 0 13.8438C0 13.2221 0.24693 12.626 0.686468 12.1865C1.12601 11.7469 1.72215 11.5 2.34375 11.5ZM1.5625 17.75H23.4375C23.6447 17.75 23.8434 17.8323 23.9899 17.9788C24.1364 18.1253 24.2188 18.324 24.2188 18.5312V19.3125C24.2188 20.1413 23.8895 20.9362 23.3035 21.5222C22.7174 22.1083 21.9226 22.4375 21.0938 22.4375H3.90625C3.07745 22.4375 2.28259 22.1083 1.69654 21.5222C1.11049 20.9362 0.78125 20.1413 0.78125 19.3125V18.5312C0.78125 18.324 0.863559 18.1253 1.01007 17.9788C1.15659 17.8323 1.3553 17.75 1.5625 17.75ZM22.1367 9.9375H2.86328C1.17529 9.9375 0.196289 7.79395 1.16309 6.23242C3.125 3.0625 7.44385 0.567383 12.5 0.5625C17.5557 0.567383 21.875 3.0625 23.8369 6.23193C24.8047 7.79346 23.8247 9.9375 22.1367 9.9375ZM6.25 4.46875C6.09548 4.46875 5.94444 4.51457 5.81596 4.60041C5.68748 4.68626 5.58735 4.80827 5.52822 4.95103C5.46909 5.09378 5.45362 5.25087 5.48376 5.40241C5.51391 5.55396 5.58831 5.69317 5.69757 5.80243C5.80683 5.91169 5.94604 5.98609 6.09758 6.01624C6.24913 6.04638 6.40622 6.03091 6.54897 5.97178C6.69173 5.91265 6.81374 5.81252 6.89959 5.68404C6.98543 5.55556 7.03125 5.40452 7.03125 5.25C7.03125 5.0428 6.94894 4.84409 6.80243 4.69757C6.65591 4.55106 6.4572 4.46875 6.25 4.46875ZM12.5 2.90625C12.3455 2.90625 12.1944 2.95207 12.066 3.03791C11.9375 3.12376 11.8374 3.24577 11.7782 3.38853C11.7191 3.53128 11.7036 3.68837 11.7338 3.83991C11.7639 3.99146 11.8383 4.13067 11.9476 4.23993C12.0568 4.34919 12.196 4.42359 12.3476 4.45374C12.4991 4.48388 12.6562 4.46841 12.799 4.40928C12.9417 4.35015 13.0637 4.25002 13.1496 4.12154C13.2354 3.99306 13.2812 3.84202 13.2812 3.6875C13.2812 3.4803 13.1989 3.28159 13.0524 3.13507C12.9059 2.98856 12.7072 2.90625 12.5 2.90625ZM18.75 4.46875C18.5955 4.46875 18.4444 4.51457 18.316 4.60041C18.1875 4.68626 18.0874 4.80827 18.0282 4.95103C17.9691 5.09378 17.9536 5.25087 17.9838 5.40241C18.0139 5.55396 18.0883 5.69317 18.1976 5.80243C18.3068 5.91169 18.446 5.98609 18.5976 6.01624C18.7491 6.04638 18.9062 6.03091 19.049 5.97178C19.1917 5.91265 19.3137 5.81252 19.3996 5.68404C19.4854 5.55556 19.5312 5.40452 19.5312 5.25C19.5312 5.0428 19.4489 4.84409 19.3024 4.69757C19.1559 4.55106 18.9572 4.46875 18.75 4.46875Z" fill="#FDF7FF"/>
</svg>
